HIERARCHY
ROOT Hips
{
 OFFSET 0.000000 0.000000 0.000000
 CHANNELS 6 Xposition Yposition Zposition Yrotation Xrotation Zrotation
 JOINT Chest
 {
  OFFSET 0.000000 10.080317 -0.001081
  CHANNELS 3 Yrotation Xrotation Zrotation
  JOINT Chest2
  {
   OFFSET 0.000000 11.096852 0.001963
   CHANNELS 3 Yrotation Xrotation Zrotation
   JOINT Chest3
   {
    OFFSET 0.000000 10.026525 0.000000
    CHANNELS 3 Yrotation Xrotation Zrotation
    JOINT Chest4
    {
     OFFSET 0.000000 10.026525 0.000000
     CHANNELS 3 Yrotation Xrotation Zrotation
     JOINT Neck
     {
      OFFSET 0.000000 14.108171 0.000000
      CHANNELS 3 Yrotation Xrotation Zrotation
      JOINT Head
      {
       OFFSET 0.000000 9.333493 0.004668
       CHANNELS 3 Yrotation Xrotation Zrotation
       End Site
       {
        OFFSET 0.000000 17.851786 0.002438
       }
      }
     }
     JOINT RightCollar
     {
      OFFSET -3.071622 7.873185 0.000000
      CHANNELS 3 Yrotation Xrotation Zrotation
      JOINT RightShoulder
      {
       OFFSET -14.378659 0.000000 0.000000
       CHANNELS 3 Yrotation Xrotation Zrotation
       JOINT RightElbow
       {
        OFFSET -30.778728 0.000000 0.000000
        CHANNELS 3 Yrotation Xrotation Zrotation
        JOINT RightWrist
        {
         OFFSET -25.164217 0.000000 0.000000
         CHANNELS 3 Yrotation Xrotation Zrotation
         End Site
         {
          OFFSET -18.796788 0.000000 0.000000
         }
        }
       }
      }
     }
     JOINT LeftCollar
     {
      OFFSET 3.071622 7.873185 0.000000
      CHANNELS 3 Yrotation Xrotation Zrotation
      JOINT LeftShoulder
      {
       OFFSET 14.378659 0.000000 0.000000
       CHANNELS 3 Yrotation Xrotation Zrotation
       JOINT LeftElbow
       {
        OFFSET 30.778728 0.000000 0.000000
        CHANNELS 3 Yrotation Xrotation Zrotation
        JOINT LeftWrist
        {
         OFFSET 25.164217 0.000000 0.000000
         CHANNELS 3 Yrotation Xrotation Zrotation
         End Site
         {
          OFFSET 18.796788 0.000000 0.000000
         }
        }
       }
      }
     }
    }
   }
  }
 }
 JOINT RightHip
 {
  OFFSET -8.194923 0.005295 0.000540
  CHANNELS 3 Yrotation Xrotation Zrotation
  JOINT RightKnee
  {
   OFFSET 0.000000 -42.473320 -0.000511
   CHANNELS 3 Yrotation Xrotation Zrotation
   JOINT RightAnkle
   {
    OFFSET 0.000000 -41.474259 -0.000865
    CHANNELS 3 Yrotation Xrotation Zrotation
    JOINT RightToe
    {
     OFFSET 0.000000 -7.354994 16.712725
     CHANNELS 3 Yrotation Xrotation Zrotation
     End Site
     {
      OFFSET 0.000000 -1.553903 6.764158
     }
    }
   }
  }
 }
 JOINT LeftHip
 {
  OFFSET 8.194923 0.005295 0.000540
  CHANNELS 3 Yrotation Xrotation Zrotation
  JOINT LeftKnee
  {
   OFFSET 0.000000 -42.473320 -0.000511
   CHANNELS 3 Yrotation Xrotation Zrotation
   JOINT LeftAnkle
   {
    OFFSET 0.000000 -41.474259 -0.000865
    CHANNELS 3 Yrotation Xrotation Zrotation
    JOINT LeftToe
    {
     OFFSET 0.000000 -7.354994 16.712725
     CHANNELS 3 Yrotation Xrotation Zrotation
     End Site
     {
      OFFSET 0.000000 -1.553903 6.764158
     }
    }
   }
  }
 }
}
MOTION
Frames: 11
Frame Time: 0.016667
0.000000 91.111157 0.000000 0.000000 -5.826342 0.000000 0.000000 11.116423 0.000000 0.000000 -5.290081 0.000000 0.000000 0.000000 0.000000 0.000000 0.000000 0.000000 0.000000 12.665069 0.000000 0.000000 0.575450 0.000000 0.000000 0.000000 0.000000 0.000000 0.000000 0.000000 2.337306 0.000000 0.000000 -2.337306 0.000000 0.000000 0.000000 0.000000 0.000000 0.000000 0.000000 0.000000 -2.337306 0.000000 0.000000 2.337306 0.000000 0.000000 0.000000 8.578828 0.000000 0.000000 1.905768 0.000000 0.000000 -4.658254 0.000000 0.000000 0.000000 0.000000 0.000000 8.578828 0.000000 0.000000 1.905768 0.000000 0.000000 -4.658254 0.000000 0.000000 0.000000 0.000000
9.566274 89.989750 -56.204113 -74.532786 -7.853128 -2.205270 -1.139046 4.062626 1.078512 -0.525290 1.815790 0.459254 -0.525290 1.815790 0.459254 -0.395300 1.361450 0.345973 -8.276892 16.363141 2.211681 -16.139726 -5.057457 7.010207 8.099452 -10.792219 7.504897 22.058070 -35.080915 38.691588 52.128309 -11.623936 20.415687 10.155173 -3.312795 -21.861842 -17.593922 -10.551677 -12.400154 -21.113083 -45.577520 -63.265003 -104.211416 -7.035301 -50.156671 -1.847751 12.220476 29.739097 0.744287 -11.983785 0.038694 6.105799 12.107900 0.810660 9.304158 7.041713 8.164575 -0.024530 0.295727 -0.720496 0.567649 7.339188 6.786107 4.441620 31.965178 -10.375158 10.309250 -21.936006 -2.532786 -0.268089 -7.750540 2.136383
9.620678 89.994511 -56.139467 -74.401711 -7.969917 -2.317629 -1.168961 4.082004 1.152366 -0.515938 1.842680 0.490740 -0.515938 1.842680 0.490740 -0.388400 1.381598 0.369580 -8.233757 16.405535 2.255906 -16.070161 -4.978219 7.071023 8.288571 -10.556300 7.537051 22.424307 -35.012954 38.577977 50.526036 -11.858062 20.058284 10.076879 -3.383529 -21.365784 -17.274001 -10.219278 -12.421332 -20.824567 -44.995890 -64.114380 -104.497609 -6.392880 -50.193339 -1.761236 12.280429 29.624140 0.740433 -11.992525 0.084313 6.102914 12.313123 0.795190 9.187276 7.087087 8.357959 0.003426 0.156843 -0.676902 0.450909 7.498470 6.740540 4.106361 30.922139 -9.945094 10.667470 -21.664347 -2.197772 -0.029287 -7.293847 1.480713
9.710759 89.990299 -56.083235 -74.337041 -7.938812 -2.340692 -1.209616 3.991801 1.193552 -0.482794 1.857333 0.499328 -0.482794 1.857333 0.499328 -0.363582 1.392607 0.375931 -8.153825 16.481058 2.324406 -15.936971 -4.839113 7.159428 8.355725 -10.355375 7.646346 22.673227 -34.920261 38.559744 49.192361 -12.002225 19.720493 9.878581 -3.429222 -20.862262 -16.961204 -9.932447 -12.421857 -20.253232 -44.250763 -64.963908 -104.816586 -5.989158 -50.244394 -1.672892 12.329999 29.608932 0.549695 -12.258517 0.130900 6.156638 12.695198 0.701389 9.295101 7.018513 8.494614 0.020111 0.070731 -0.586475 0.239586 8.070814 6.437330 3.985714 28.647791 -8.975121 11.097684 -21.681729 -1.560034 0.280648 -5.846556 0.334896
9.833376 89.970851 -56.033892 -74.314918 -7.818992 -2.266076 -1.243618 3.868404 1.155819 -0.452929 1.845229 0.494154 -0.452929 1.845229 0.494154 -0.341160 1.383558 0.371952 -8.019409 16.587168 2.420685 -15.709011 -4.646694 7.276452 8.316810 -10.135147 7.837260 22.687102 -34.846938 38.771861 48.211647 -12.015347 19.500400 9.689187 -3.407671 -20.416984 -16.634461 -9.569685 -12.413043 -19.610350 -43.453386 -65.687457 -105.098667 -5.786024 -50.344356 -1.541557 12.345376 29.699109 0.216445 -12.681142 0.172811 6.247609 13.163279 0.523115 9.500582 6.968426 8.529571 0.042585 -0.035913 -0.428500 -0.357697 8.783349 5.897430 4.007430 26.266161 -8.123747 11.821098 -22.045611 -0.691614 0.398516 -3.050666 -0.694774
9.938676 89.935756 -55.969016 -74.536587 -7.982441 -2.140933 -1.022368 4.091861 1.079839 -0.443655 1.829386 0.493883 -0.443655 1.829386 0.493883 -0.334192 1.371683 0.371709 -7.847050 16.681720 2.556843 -15.426015 -4.474620 7.456101 8.211440 -9.916930 8.066207 22.348835 -34.925514 39.272059 47.591312 -11.820083 19.522192 9.576851 -3.418126 -20.158713 -16.258352 -9.232284 -12.401160 -18.983694 -42.741310 -66.173779 -105.254916 -5.771322 -50.510697 -1.509279 12.317056 29.915098 0.144082 -12.876164 0.220433 6.274230 13.717198 0.289656 9.796058 6.854925 8.502603 0.053640 -0.120353 -0.235200 -0.993183 9.538538 5.242256 3.896074 25.069729 -7.868065 12.899344 -23.047322 -0.143299 0.153108 -1.161438 -1.100887
10.128518 89.892432 -55.888894 -74.546675 -7.870975 -1.982832 -1.030039 4.064979 0.927316 -0.422618 1.836222 0.496173 -0.422618 1.836222 0.496173 -0.318428 1.376826 0.373369 -7.687071 16.727520 2.711220 -15.177826 -4.388126 7.680473 8.048209 -9.744464 8.357934 21.691245 -35.053713 39.864292 47.326799 -11.652040 19.821645 9.567420 -3.388672 -20.001226 -15.908169 -8.972478 -12.360264 -18.417748 -42.106233 -66.431849 -105.392799 -5.865845 -50.761626 -1.546719 12.345349 30.106843 -0.028165 -13.338410 0.160200 6.253526 14.208120 0.067691 10.027155 6.806073 8.448446 0.065005 -0.210211 -0.036328 -2.268130 9.927225 4.407806 4.180576 23.721321 -7.528283 13.786967 -23.658525 0.327489 0.078926 0.280235 -1.259215
10.267257 89.884663 -55.789786 -74.799478 -8.120308 -1.753229 -0.752519 4.350640 0.760365 -0.360806 1.885538 0.459503 -0.360806 1.885538 0.459503 -0.271999 1.413884 0.345710 -7.583207 16.763631 2.902870 -15.046958 -4.306308 7.993601 7.776888 -9.531518 8.791537 20.792983 -35.284786 40.469500 47.350028 -11.479234 20.272773 9.597026 -3.379511 -19.909187 -15.703839 -8.746748 -12.274808 -18.046328 -41.565558 -66.390853 -105.544999 -5.953073 -51.049796 -1.624813 12.408884 30.267003 0.261435 -13.372976 0.016441 6.080819 14.574390 -0.163569 10.245678 6.796473 8.358036 0.073163 -0.295981 0.168804 -2.059117 10.641915 3.894936 4.109409 22.637694 -7.156198 13.794021 -23.821869 0.791305 -0.009205 0.890116 -1.308373
10.453928 89.905667 -55.711113 -74.920847 -8.238886 -1.474832 -0.657091 4.425003 0.596491 -0.274118 1.970955 0.392115 -0.274118 1.970955 0.392115 -0.206833 1.478041 0.294942 -7.522217 16.817381 3.071062 -14.984942 -4.189688 8.275318 7.436712 -9.165592 9.136559 19.795231 -35.537597 41.197449 47.603289 -11.507885 20.736425 9.617727 -3.374530 -19.880243 -15.510424 -8.563558 -12.202007 -17.951762 -41.062494 -66.126860 -105.712552 -5.924713 -51.255511 -1.622388 12.471524 30.395057 0.362859 -13.399791 -0.210180 6.007399 14.632913 -0.330476 10.407619 6.996628 8.212266 0.088371 -0.412535 0.367020 -2.352963 10.643271 3.515335 4.913631 22.487916 -6.982500 13.222898 -23.590867 1.193509 -0.063536 0.801029 -1.213919
10.624009 89.933028 -55.624839 -75.121899 -8.582999 -1.238795 -0.485802 4.561182 0.487258 -0.176404 2.056506 0.321092 -0.176404 2.056506 0.321092 -0.133370 1.542288 0.241387 -7.528558 16.936823 3.123674 -14.999915 -3.960405 8.357389 7.129536 -8.635056 9.327801 18.794382 -35.672358 42.256398 47.924317 -11.518273 20.932713 9.536779 -3.376904 -19.873061 -15.375123 -8.359984 -12.108801 -18.057444 -40.565024 -65.732334 -105.877612 -5.769123 -51.257109 -1.537553 12.493867 30.435592 0.480550 -13.048395 -0.450878 5.949758 14.385647 -0.390602 10.598559 7.302293 8.028138 0.102086 -0.488698 0.536747 -2.886133 10.839557 3.113816 5.898210 22.442895 -6.920404 12.809830 -23.256599 1.423361 -0.083713 0.524434 -0.980875
10.784801 89.919474 -55.545299 -75.375737 -9.009428 -1.085199 -0.278684 4.773511 0.443507 -0.097379 2.130493 0.280921 -0.097379 2.130493 0.280921 -0.074005 1.597825 0.211006 -7.562603 17.092549 3.032400 -15.013333 -3.682612 8.178984 6.919800 -8.230510 9.384198 18.288966 -35.496201 43.145552 48.120111 -11.524928 20.811891 9.469843 -3.392662 -19.847381 -15.190744 -8.286512 -11.984697 -18.079145 -40.200821 -65.394616 -105.955374 -5.729249 -51.196796 -1.446161 12.461033 30.410694 0.565141 -12.555206 -0.635449 5.782074 14.003823 -0.402178 10.917757 7.610623 7.840123 0.111491 -0.495785 0.647701 -2.452989 11.395402 2.938496 6.215643 22.095929 -6.858374 12.231161 -23.076093 1.602183 -0.077012 0.391376 -0.709650
